<?xml version="1.0" encoding="utf-8"?>
<!-- Generator: Adobe Illustrator 27.0.0, SVG Export Plug-In . SVG Version: 6.00 Build 0)  -->
<svg version="1.1" xmlns="http://www.w3.org/2000/svg" xmlns:xlink="http://www.w3.org/1999/xlink" x="0px" y="0px"
	 viewBox="0 0 1000 1000" style="enable-background:new 0 0 1000 1000;" xml:space="preserve">
<style type="text/css">
	.st0{fill:#FFEFCC;}
	.st1{fill:#1B50C9;}
	.st2{fill:none;}
	.st3{fill:#353239;}
	.st4{fill:#FFFFFF;}
	.st5{fill:#FF4E00;}
	.st6{fill:#166344;}
</style>
<g id="Layer_4">
</g>
<g id="Layer_6">
</g>
<g id="Layer_3">
</g>
<g id="Layer_1">
</g>
<g id="Layer_16">
	<g>
		<path class="st3" d="M300.6,604.7l9-33.6l3.6,0.3c8.7,24.9,37.2,32.7,62.4,32.7c33.3,0,58.2-10.2,62.7-31.5
			c9.6-48.3-120.3-44.4-99.6-124.5c10.5-39,49.5-56.7,90-57.6c22.8-0.3,40.5,4.2,54,15.9c1.5,1.2,2.7,1.5,4.2,0.6
			c2.1-1.2,3.3-3.9,5.4-10.8h4.5l-10.5,35.7l-4.5-0.3c3.9-33.3-35.4-36.6-51.3-36.6c-27,0-57.3,12.3-58.2,37.8
			c-1.2,27.6,81,36.9,101.7,72.3c11.4,18.6,4.5,42.9-5.1,60.3c-15.3,26.4-54.3,43.8-92.1,43.8c-23.7,0-43.2-4.8-59.7-18.9
			c-5.7-4.8-6-5.1-12.6,14.4H300.6z"/>
		<path class="st3" d="M603.3,400.7h-12.9l1.2-4.5h60.6L618,524c-12.9,48-48.6,85.5-106.2,85.5c-24.3,0-39.9-6-49.2-12.9
			c-5.4-3.9-9.6-8.1-12.3-12.9l4.8-2.7c10.8,18,38.4,24.9,58.8,21.6c36.9-6.3,45-35.7,60.3-93.6L603.3,400.7z"/>
		<path class="st3" d="M660.6,588.5c0.9-10.8,9.9-19.5,21-19.5s18.9,8.7,17.7,19.5c-1.2,11.1-9.9,19.8-21,19.8
			C667.2,608.3,659.4,599.6,660.6,588.5z"/>
	</g>
</g>
<g id="Layer_18">
</g>
<g id="OJ_x5F_ROH_x5F_v01">
</g>
<g id="OJ_x5F_JONG_x5F_v01">
</g>
<g id="OJ_x5F_SOO_x5F_v01">
</g>
<g id="SJ_x5F_J">
</g>
<g id="SJ_x5F_S">
</g>
<g id="SJ_x5F_Right">
</g>
<g id="SJ_x5F_Left">
</g>
<g id="Roh">
</g>
<g id="Jong">
</g>
<g id="Soo">
</g>
<g id="Left">
</g>
<g id="Right">
</g>
</svg>
