<?xml version="1.0" encoding="utf-8"?>
<!-- Generator: Adobe Illustrator 27.0.0, SVG Export Plug-In . SVG Version: 6.00 Build 0)  -->
<svg version="1.1" xmlns="http://www.w3.org/2000/svg" xmlns:xlink="http://www.w3.org/1999/xlink" x="0px" y="0px"
	 viewBox="0 0 1000 1000" style="enable-background:new 0 0 1000 1000;" xml:space="preserve">
<style type="text/css">
	.st0{fill:#FFEFCC;}
	.st1{fill:#1B50C9;}
	.st2{fill:none;}
	.st3{fill:#353239;}
	.st4{fill:#FFFFFF;}
	.st5{fill:#FF4E00;}
	.st6{fill:#166344;}
</style>
<g id="Layer_4">
</g>
<g id="Layer_6">
</g>
<g id="Layer_3">
</g>
<g id="Layer_1">
</g>
<g id="Layer_16">
</g>
<g id="Layer_18">
</g>
<g id="OJ_x5F_ROH_x5F_v01">
</g>
<g id="OJ_x5F_JONG_x5F_v01">
</g>
<g id="OJ_x5F_SOO_x5F_v01">
</g>
<g id="SJ_x5F_J">
</g>
<g id="SJ_x5F_S">
</g>
<g id="SJ_x5F_Right">
</g>
<g id="SJ_x5F_Left">
	<g>
		<g>
			<path class="st3" d="M625.8,435.2h-17.2l1.6-6H691l-45.6,170.4c-17.2,64-64.8,114-141.6,114c-32.4,0-53.2-8-65.6-17.2
				c-7.2-5.2-12.8-10.8-16.4-17.2l6.4-3.6c14.4,24,51.2,33.2,78.4,28.8c49.2-8.4,60-47.6,80.4-124.8L625.8,435.2z"/>
		</g>
		<g>
			<path class="st3" d="M309,572l12-44.8l4.8,0.4c11.6,33.2,49.6,43.6,83.2,43.6c44.4,0,77.6-13.6,83.6-42
				c12.8-64.4-160.4-59.2-132.8-166c14-52,66-75.6,120-76.8c30.4-0.4,54,5.6,72,21.2c2,1.6,3.6,2,5.6,0.8c2.8-1.6,4.4-5.2,7.2-14.4
				h6l-14,47.6l-6-0.4c5.2-44.4-47.2-48.8-68.4-48.8c-36,0-76.4,16.4-77.6,50.4c-1.6,36.8,108,49.2,135.6,96.4
				c15.2,24.8,6,57.2-6.8,80.4C513,554.8,461,578,410.6,578c-31.6,0-57.6-6.4-79.6-25.2c-7.6-6.4-8-6.8-16.8,19.2H309z"/>
		</g>
		<path class="st3" d="M563.1,745.2h182.1V254.8c0,0-7.1,159.1-33.3,307C693.2,666.9,624.8,745.2,563.1,745.2z"/>
		<path class="st3" d="M436.9,254.8H254.8v490.5c0,0,7.1-159.1,33.3-307C306.8,333.1,375.2,254.8,436.9,254.8z"/>
	</g>
</g>
<g id="Roh">
</g>
<g id="Jong">
</g>
<g id="Soo">
</g>
<g id="Left">
</g>
<g id="Right">
</g>
</svg>
